<svg xmlns="http://www.w3.org/2000/svg" xmlns:xlink="http://www.w3.org/1999/xlink" width="39" height="29" viewBox="0 0 39 29">
  <defs>
    <clipPath id="clip-Artboard_3">
      <rect width="39" height="29"/>
    </clipPath>
  </defs>
  <g id="Artboard_3" data-name="Artboard – 3" clip-path="url(#clip-Artboard_3)">
    <g id="branch-seeklogo.com" transform="translate(5.562)">
      <path id="Path_4" data-name="Path 4" d="M28.4,14.2a14.2,14.2,0,1,0-15.48,14.142h.035q.178.015.357.027l.069,0q.162.01.329.015H13.8c.134,0,.269.006.4.006s.257,0,.384-.006h.054q.169,0,.337-.014H15q.378-.021.751-.062A14.214,14.214,0,0,0,28.4,14.2ZM15.7,26.961l-.137-3.927L19,20.93a2.586,2.586,0,0,0,4.046-2.208,2.616,2.616,0,0,0-2.509-2.509,2.57,2.57,0,0,0-2.627,2.994l-2.421,1.5-.176-4.949,3.375-2.064a3.043,3.043,0,1,0-1.133-1.707l-2.323,1.442-.138-3.949a2.767,2.767,0,1,0-1.993,0l-.251,8.183-2.529-1.611A3.008,3.008,0,0,0,10.091,14,3.254,3.254,0,0,0,7.4,12.125a3.206,3.206,0,1,0,1.847,5.658l3.525,2.23-.212,6.931a12.855,12.855,0,1,1,3.14.015Z" fill="#299a02"/>
      <path id="Path_5" data-name="Path 5" d="M55.906,47.164a1.673,1.673,0,1,1-1.673,1.673A1.674,1.674,0,0,1,55.906,47.164Zm6.306,12.053a1.519,1.519,0,1,1-1.4.94A1.52,1.52,0,0,1,62.211,59.217Zm.936-4.405a1.787,1.787,0,1,1,1-1.715A1.789,1.789,0,0,1,63.147,54.811Zm-14.221.5A1.927,1.927,0,1,1,47,57.235,1.929,1.929,0,0,1,48.926,55.308Z" transform="translate(-41.786 -41.931)" fill="#cfde00"/>
    </g>
  </g>
</svg>
